<svg width="193" height="183" viewBox="0 0 193 183" fill="none" xmlns="http://www.w3.org/2000/svg">
<path d="M166.894 158.507L138.023 147.159L155.434 129.748L166.894 158.507Z" fill="#00CFEE"/>
<path d="M26.1061 155.351L37.5644 126.592L54.9766 144.004L26.1061 155.351Z" fill="#00CFEE"/>
<path d="M26.1072 24.4944L54.9769 35.8391L37.5635 53.2526L26.1072 24.4944Z" fill="#00CFEE"/>
<path d="M166.893 25.8342L155.437 54.5924L138.023 37.1789L166.893 25.8342Z" fill="#00CFEE"/>
<ellipse cx="96.5" cy="91.5" rx="71.1885" ry="69.4138" fill="#00CFEE"/>
<rect x="50.623" y="82.0344" width="91.7541" height="15.7759" fill="#110358"/>
<path d="M96.5 0L108.83 28.3966H84.1698L96.5 0Z" fill="#00CFEE"/>
<path d="M96.5 183L84.1698 154.603L108.83 154.603L96.5 183Z" fill="#00CFEE"/>
<path d="M193 93.0776L164.525 105.374V80.7815L193 93.0776Z" fill="#00CFEE"/>
<path d="M0 93.0776L28.4754 80.7815L28.4754 105.374L0 93.0776Z" fill="#00CFEE"/>
</svg>
