<svg width="30" height="51" viewBox="0 0 30 51" fill="none" xmlns="http://www.w3.org/2000/svg">
<path d="M29.8669 25.3765C29.8384 24.3767 29.467 23.5198 28.6958 22.7485L6.47266 1.01099C5.81567 0.382568 5.04443 0.0397949 4.10181 0.0397949C2.18799 0.0397949 0.702637 1.52515 0.702637 3.43896C0.702637 4.35303 1.07397 5.20996 1.73096 5.86694L21.7261 25.3765L1.73096 44.886C1.07397 45.543 0.702637 46.3713 0.702637 47.314C0.702637 49.2278 2.18799 50.7131 4.10181 50.7131C5.01587 50.7131 5.81567 50.3704 6.47266 49.7419L28.6958 27.9758C29.4956 27.2332 29.8669 26.3762 29.8669 25.3765Z" fill="#00CFEE"/>
</svg>
