<svg width="47" height="27" viewBox="0 0 47 27" fill="none" xmlns="http://www.w3.org/2000/svg">
<path d="M1.27656 21.6138L21.1031 1.34437C21.7805 0.614877 22.5881 0.276184 23.5 0.276184C24.4119 0.276184 25.2456 0.64093 25.923 1.34437L45.7235 21.6138C46.2966 22.187 46.6093 22.9165 46.6093 23.7763C46.6093 25.5218 45.2545 26.8766 43.535 26.8766C42.7013 26.8766 41.8936 26.564 41.2944 25.9387L23.5261 7.67532L5.70562 25.9387C5.13245 26.5379 4.32479 26.8766 3.46504 26.8766C1.74552 26.8766 0.390747 25.5218 0.390747 23.7763C0.390747 22.9425 0.703387 22.187 1.27656 21.6138Z" fill="#00CFEE"/>
</svg>
