<svg width="30" height="51" viewBox="0 0 30 51" fill="none" xmlns="http://www.w3.org/2000/svg">
<path d="M0.133057 25.3765C0.133057 26.3762 0.504395 27.2332 1.3042 27.9758L23.5273 49.7419C24.1558 50.3704 24.9556 50.7131 25.8982 50.7131C27.7834 50.7131 29.2974 49.2278 29.2974 47.314C29.2974 46.3713 28.8975 45.543 28.269 44.886L8.24536 25.3765L28.269 5.86694C28.8975 5.20996 29.2974 4.35303 29.2974 3.43896C29.2974 1.52515 27.7834 0.0397949 25.8982 0.0397949C24.9556 0.0397949 24.1558 0.382568 23.5273 1.01099L1.3042 22.7485C0.504395 23.5198 0.133057 24.3767 0.133057 25.3765Z" fill="#00CFEE"/>
</svg>
