<svg width="47" height="27" viewBox="0 0 47 27" fill="none" xmlns="http://www.w3.org/2000/svg">
<path d="M23.5 26.8045C24.4119 26.7785 25.2456 26.4398 25.923 25.7103L45.7235 5.44084C46.2966 4.86766 46.6093 4.13817 46.6093 3.27841C46.6093 1.55889 45.2545 0.17807 43.535 0.17807C42.7013 0.17807 41.8936 0.516763 41.2944 1.11599L23.5261 19.3793L5.70562 1.11599C5.10639 0.542816 4.32479 0.17807 3.46504 0.17807C1.74552 0.17807 0.390747 1.55889 0.390747 3.27841C0.390747 4.13817 0.703387 4.86766 1.27656 5.44084L21.1031 25.7103C21.8066 26.4398 22.5881 26.8045 23.5 26.8045Z" fill="#00CFEE"/>
</svg>
